<svg width="186" height="55" viewBox="0 0 186 55" fill="none" xmlns="http://www.w3.org/2000/svg">
<path d="M25.242 2.65424C24.1066 4.39473 23.5825 5.78712 23.5825 6.87493C23.5389 8.48488 23.5389 8.48488 22.7964 7.00547C22.185 5.78712 17.9052 2.21912 16.9881 2.17561C16.8571 2.17561 16.4641 3.52449 16.0711 5.22147C15.547 7.74517 15.547 8.44137 16.0274 9.6162C16.8135 11.5307 16.7698 11.6178 15.416 10.3559C14.5862 9.57269 13.1451 8.96352 11.1799 8.52839C9.52035 8.13678 8.0792 7.87571 7.99185 7.96273C7.90451 8.04976 8.16654 9.57269 8.51591 11.3567C9.08364 13.9674 9.43301 14.7506 10.6121 15.7514C12.0096 17.0133 12.0096 17.0133 10.6121 16.3171C9.82605 15.969 8.73427 15.6644 8.16654 15.6644C6.46336 15.6644 2.18357 16.6217 2.18357 17.0133C2.18357 17.1873 2.92598 18.4492 3.84308 19.7545C5.0222 21.5385 5.89563 22.3218 7.20577 22.8004C8.95262 23.4096 8.95262 23.4096 7.24944 23.4531C5.45892 23.4966 0 26.3249 0 27.1951C0 27.9783 5.54626 30.8937 7.07476 30.9372C8.51591 30.9372 8.51591 30.9372 6.98741 31.5899C5.58993 32.1555 2.18357 36.3327 2.18357 37.4205C2.18357 37.5945 3.58105 38.0297 5.24056 38.3343C7.59881 38.7259 8.55958 38.7259 9.38934 38.3778C11.1799 37.551 11.6602 37.8121 10.3501 38.8564C9.43301 39.6396 8.99629 40.5534 8.47224 43.0336C8.12287 44.8176 7.90451 46.297 7.99185 46.384C8.0792 46.5145 9.52035 46.2535 11.1799 45.8619C13.1451 45.4267 14.6299 44.7741 15.4597 44.0344C16.5078 43.0771 16.6825 42.9901 16.3768 43.7298C16.2021 44.2084 15.94 45.0351 15.8527 45.5573C15.5907 46.6886 16.5514 52.2146 16.9881 52.1711C17.9926 52.0841 22.185 48.6902 22.7964 47.4283C23.5389 45.9054 23.5389 45.9054 23.5825 47.5588C23.5825 48.7772 24.0629 49.952 25.3294 51.823C26.3338 53.2154 27.1636 54.3903 27.2509 54.3903C27.3383 54.3903 28.2117 53.1719 29.2161 51.649C30.3953 49.8215 31.0066 48.3856 31.0066 47.3848C31.0503 45.9054 31.0503 45.9054 31.618 47.2978C32.1858 48.5161 36.5529 52.2146 37.47 52.2146C37.6884 52.2146 38.1251 50.7352 38.4308 48.9077C38.9548 45.9054 38.9548 45.4703 38.2561 44.2954C37.208 42.5549 37.601 42.3374 38.9548 43.9038C39.8283 44.8176 40.8327 45.2962 43.2346 45.8619C44.9815 46.2535 46.51 46.5145 46.5973 46.4275C46.6847 46.3405 46.4226 44.9046 46.0296 43.2511C45.5929 41.2931 44.9378 39.8137 44.1954 38.9869C43.191 37.9426 43.1473 37.7686 43.8897 38.0732C45.7676 38.7694 46.3353 38.8129 49.3486 38.2907C51.5758 37.8991 52.4056 37.5945 52.2309 37.2029C51.6195 35.593 48.6499 32.0685 47.4271 31.5464C46.0733 30.9807 46.0733 30.9807 47.5581 30.9372C49.0866 30.8937 54.7639 27.6303 54.3708 27.0211C54.2835 26.847 53.017 25.9768 51.5758 25.1065C49.829 24.0187 48.4315 23.4966 47.2961 23.4531C45.6365 23.4096 45.6365 23.4096 47.165 22.8874C48.2132 22.4958 49.2613 21.5385 50.5277 19.7545C51.5322 18.3622 52.3619 17.0568 52.4056 16.9263C52.4056 16.4911 46.8593 15.5339 45.7239 15.7949C45.1998 15.882 44.3701 16.143 43.8897 16.3171C43.1473 16.6217 43.2346 16.4476 44.1954 15.4033C44.9378 14.5766 45.5929 13.0972 46.0296 11.1391C46.4226 9.48566 46.6847 8.09327 46.5973 8.00625C46.379 7.78868 40.789 9.00703 40.0903 9.39864C39.7846 9.57269 39.1732 10.2254 38.6928 10.791C37.601 12.1399 37.2953 11.7048 38.2561 10.0948C38.9548 8.92 38.9548 8.48488 38.4308 5.48254C38.1251 3.65503 37.732 2.17561 37.5137 2.17561C36.4656 2.17561 32.2731 5.61308 31.7054 6.96195C31.0503 8.48488 31.0503 8.48488 31.0503 7.00547C31.0066 6.00468 30.3953 4.56878 29.2161 2.74127C28.2117 1.21834 27.2946 0 27.1199 0C26.9889 0.0435143 26.1155 1.21834 25.242 2.65424Z" fill="#585C3E"/>
<path d="M53.8293 0.653103C53.6901 1.12778 52.6693 3.97583 51.5557 6.96629C49.0965 13.5168 48.7253 15.6054 49.4677 18.7857C50.3957 22.8205 54.8501 27.14 59.8149 28.8489C62.2277 29.7033 62.2277 29.7033 62.3669 33.738C62.4597 36.1589 62.3205 37.8203 62.0421 37.8203C61.8101 37.8203 61.4853 37.4405 61.3461 36.9658C60.7893 35.1621 58.2837 33.5482 51.4629 30.4628C47.5653 28.7065 44.2245 27.3774 44.0389 27.4723C43.8533 27.5198 43.7141 29.9406 43.8069 32.8362C44.0389 40.7633 44.3637 41.143 55.0357 45.6524C61.9493 48.5954 62.6453 49.2125 62.2741 52.203C62.0421 54.4814 62.0421 54.4814 64.9189 54.339C67.7493 54.1966 67.7493 54.1966 67.6565 52.0605C67.5637 50.8264 67.7493 49.5922 68.1205 49.1176C68.4453 48.6903 71.5541 47.1239 74.9877 45.6524C83.4325 41.9974 83.6181 41.9025 84.9173 39.5766C85.8917 37.8677 86.0773 36.8709 86.2165 32.5039C86.2629 29.6558 86.1701 27.3774 85.9845 27.3299C85.7989 27.3299 82.1797 28.8489 78.0037 30.7476C71.2293 33.7855 70.2549 34.3551 69.1877 35.969C68.5381 37.0133 67.9349 37.8203 67.7957 37.8203C67.6565 37.8203 67.5637 36.0165 67.5637 33.7855C67.5637 30.9375 67.7493 29.6558 68.1669 29.5609C73.0853 28.0894 77.9573 24.5293 79.7205 21.0642C81.2517 18.0737 81.1589 13.327 79.3957 9.57701C78.6997 8.01058 77.6325 5.25746 77.0757 3.40622C75.9157 -0.201317 75.2661 -0.91333 74.8485 1.12778C74.3381 3.7385 70.7189 12.7099 70.2549 12.5675C69.7909 12.3776 68.6309 9.57702 66.3573 3.16889C65.7541 1.46005 65.1509 0.0834885 64.9189 0.0834885C64.7333 0.0834885 64.3157 0.937908 64.0373 1.9822C62.6453 6.49162 60.1861 12.4251 59.6757 12.4251C59.1653 12.4251 55.0821 2.31447 55.0357 0.937908C55.0357 -0.0114441 54.1077 -0.248783 53.8293 0.653103Z" fill="#FBCD5D"/>
<path d="M99.8226 5.37285C99.9652 10.4128 100.06 10.8883 101.249 12.4574C104.767 17.0219 112.185 16.3562 114.515 11.2211C115.18 9.74718 115.418 8.13058 115.418 4.56455C115.418 -0.142615 115.418 -0.142616 113.754 0.142667C111.662 0.475496 109.427 2.04455 108.524 3.85134C108.096 4.61209 107.715 5.23021 107.62 5.23021C107.525 5.23021 106.907 4.42191 106.241 3.42342C105.005 1.52153 102.533 2.57492e-05 100.678 2.57492e-05C99.6799 2.57492e-05 99.6324 0.0951204 99.8226 5.37285Z" fill="#EAF5A4"/>
<path d="M90.3131 5.46786C89.5999 6.94182 89.5524 11.126 90.218 12.3622C90.646 13.1229 90.4082 13.218 87.6981 13.4082C85.5584 13.5509 84.2747 13.8837 83.1811 14.692C82.3252 15.3101 81.6596 15.9758 81.7547 16.166C81.9924 16.7841 87.8882 21.3961 89.4573 22.2044C91.2641 23.1554 95.1154 22.775 96.7795 21.5388C100.155 19.0663 101.249 14.3592 99.2995 11.126C98.3486 9.60446 92.1675 4.27919 91.3116 4.27919C91.0739 4.27919 90.5984 4.80221 90.3131 5.46786Z" fill="#EAF5A4"/>
<path d="M120.363 6.60894C116.797 9.50931 115.561 10.9833 114.942 13.3606C113.231 19.6844 120.791 25.2474 126.401 21.7289C128.731 20.3025 133.486 16.4987 133.486 16.0708C133.486 15.8806 132.82 15.2625 131.964 14.6919C130.871 13.8836 129.587 13.5508 127.4 13.4082C124.832 13.218 124.452 13.0753 124.737 12.4097C125.831 10.0323 125.165 4.27913 123.834 4.27913C123.501 4.32668 121.979 5.37272 120.363 6.60894Z" fill="#EAF5A4"/>
<path d="M105.433 19.5893C100.488 20.9681 98.2535 27.3394 101.249 31.476C102.485 33.2353 105.433 34.7092 107.668 34.7092C112.09 34.6617 115.846 30.2398 115.18 25.913C114.8 23.1553 112.423 20.35 109.807 19.5893C107.668 18.9236 107.668 18.9236 105.433 19.5893Z" fill="#EAF5A4"/>
<path d="M84.037 24.2013C82.0875 24.6292 80.1857 25.1522 79.9004 25.3424C78.474 26.2458 82.3728 30.6677 85.0355 31.2383C86.6521 31.5236 86.7472 31.9039 85.5109 32.6647C83.4664 33.9485 81.6121 40.4149 83.2762 40.4149C84.6551 40.4149 91.5019 38.6081 92.9283 37.8473C94.5924 36.9915 96.1615 34.7568 96.6369 32.4745C97.3026 29.3364 94.9728 25.3424 91.7871 23.9636C89.8853 23.1553 88.6015 23.2028 84.037 24.2013Z" fill="#EAF5A4"/>
<path d="M123.263 23.9635C120.981 24.962 118.841 27.7197 118.509 30.1446C118.033 33.0925 119.65 36.4208 122.217 37.8472C124.262 38.9884 131.346 40.605 132.107 40.1295C133.296 39.4163 131.156 33.2827 129.444 32.6171C128.446 32.2367 128.541 31.3808 129.587 31.3808C131.679 31.3808 135.626 27.482 135.293 25.7227C135.198 25.2948 133.676 24.7243 131.109 24.2012C126.259 23.1552 125.118 23.1552 123.263 23.9635Z" fill="#EAF5A4"/>
<path d="M94.9253 37.7047C93.7842 38.4179 92.5955 40.0821 91.0264 43.1726C89.7902 45.5975 88.8868 47.7847 89.0295 48.0224C89.5525 48.9258 94.64 48.5454 96.3042 47.547C98.2536 46.3583 98.3012 46.3583 98.3012 47.7371C98.3012 49.5439 99.157 51.4458 100.821 53.11C101.629 53.9658 102.438 54.679 102.628 54.679C102.771 54.679 103.817 52.8247 104.91 50.59C107.953 44.2662 107.43 40.0345 103.436 37.5621C101.202 36.1832 97.0649 36.2783 94.9253 37.7047Z" fill="#EAF5A4"/>
<path d="M111.614 37.7047C107.573 40.3673 107.145 44.1711 110.093 50.4949C111.187 52.8247 112.233 54.679 112.47 54.679C112.708 54.679 113.707 53.8232 114.61 52.8247C115.799 51.4934 116.417 50.3047 116.607 48.7832C116.797 47.5945 117.035 46.596 117.13 46.596C117.225 46.596 117.986 47.0239 118.842 47.547C120.506 48.5454 125.546 48.9258 126.116 48.07C126.259 47.8322 125.356 45.6451 124.119 43.1726C121.314 37.7523 119.888 36.6111 115.894 36.6111C113.849 36.6111 112.803 36.8964 111.614 37.7047Z" fill="#EAF5A4"/>
<path d="M153.169 2.66083C150.323 5.88011 149.343 7.65304 148.923 10.4524C148.643 12.7852 148.363 12.9719 147.15 11.6188C145.75 10.0325 141.645 8.81945 137.819 8.81945C134.366 8.81945 134.366 8.81945 134.599 13.1118C134.833 17.4042 135.719 20.0636 137.306 21.37C138.565 22.3964 138.192 23.2829 136.559 23.2829C134.32 23.2829 131.054 25.0558 128.021 27.8085C125.362 30.2813 125.362 30.2813 128.021 32.7074C131.287 35.7401 133.293 36.8598 135.999 37.1864C138.145 37.4197 138.612 38.1195 137.306 39.1926C135.719 40.499 134.879 43.1584 134.599 47.4508C134.32 51.7432 134.32 51.7432 138.005 51.7432C142.204 51.7432 144.024 51.2299 146.823 49.2704C149.763 47.1709 151.022 44.1849 151.209 38.9127C151.349 34.7136 151.349 34.7136 148.456 34.8536C146.823 34.9469 145.517 34.8536 145.517 34.667C145.517 34.4337 146.403 33.3606 147.477 32.2875C149.436 30.2813 149.436 30.2813 147.477 28.2751C146.403 27.202 145.517 26.1289 145.517 25.9423C145.517 25.7557 146.87 25.6157 148.55 25.6157C151.582 25.6157 151.582 25.6157 151.256 22.8163C150.929 19.3638 151.676 19.0838 154.055 21.8832C154.942 22.9096 155.828 23.7494 156.061 23.7494C156.295 23.7494 156.994 23.0029 157.648 22.1165C159.84 19.0838 160.96 19.4104 160.587 23.0496C160.307 25.6157 160.307 25.6157 163.433 25.6157C165.113 25.6157 166.512 25.8023 166.512 26.0356C166.512 26.2689 165.533 27.342 164.319 28.3684C162.127 30.2346 162.127 30.2346 164.319 32.1476C165.533 33.2206 166.372 34.2937 166.232 34.5737C166.092 34.807 164.786 34.9469 163.293 34.9003C160.68 34.7603 160.68 34.7603 160.54 37.5597C160.214 43.4384 162.173 47.7307 166.372 50.2035C168.285 51.3233 169.172 51.5099 173.091 51.6499C177.57 51.8365 177.57 51.8365 177.383 48.4306C177.103 43.1584 176.87 42.2253 175.377 40.1258C173.604 37.6996 173.604 37.2797 175.517 37.2797C177.756 37.2797 181.349 35.3202 184.008 32.6141C186.295 30.2813 186.295 30.2813 184.008 27.9485C181.256 25.1491 177.756 23.2829 175.284 23.2829C174.304 23.2829 173.511 23.1896 173.511 23.0496C173.511 22.9096 174.257 21.8832 175.144 20.7168C176.823 18.4773 177.103 17.5442 177.383 12.1787C177.57 8.81945 177.57 8.81945 173.931 8.81945C169.872 8.81945 167.026 9.65926 165.019 11.5255C163.526 12.9252 162.78 12.5519 162.78 10.4058C162.78 8.11961 161.24 5.27357 158.441 2.38089C157.134 1.07452 155.921 -0.0452347 155.781 0.00142288C155.641 0.00142288 154.475 1.21449 153.169 2.66083Z" fill="#3A5155"/>
<path d="M153.635 34.9003C153.542 34.9936 153.449 38.866 153.449 43.4384C153.449 51.7432 153.449 51.7432 155.782 51.7432C158.114 51.7432 158.114 51.7432 158.114 43.2051C158.114 34.7136 158.114 34.7136 155.968 34.7136C154.802 34.7136 153.729 34.807 153.635 34.9003Z" fill="#3A5155"/>
</svg>
