<svg width="52" height="52" viewBox="0 0 52 52" fill="none" xmlns="http://www.w3.org/2000/svg">
<path d="M47.125 9.75H32.5C31.2386 9.75 29.9946 10.0437 28.8664 10.6078C27.7382 11.1719 26.7568 11.9909 26 13C25.2432 11.9909 24.2618 11.1719 23.1336 10.6078C22.0054 10.0437 20.7614 9.75 19.5 9.75H4.875C4.44402 9.75 4.0307 9.92121 3.72595 10.226C3.4212 10.5307 3.25 10.944 3.25 11.375V40.625C3.25 41.056 3.4212 41.4693 3.72595 41.774C4.0307 42.0788 4.44402 42.25 4.875 42.25H19.5C20.7929 42.25 22.0329 42.7636 22.9471 43.6779C23.8614 44.5921 24.375 45.8321 24.375 47.125C24.375 47.556 24.5462 47.9693 24.851 48.274C25.1557 48.5788 25.569 48.75 26 48.75C26.431 48.75 26.8443 48.5788 27.149 48.274C27.4538 47.9693 27.625 47.556 27.625 47.125C27.625 45.8321 28.1386 44.5921 29.0529 43.6779C29.9671 42.7636 31.2071 42.25 32.5 42.25H47.125C47.556 42.25 47.9693 42.0788 48.274 41.774C48.5788 41.4693 48.75 41.056 48.75 40.625V11.375C48.75 10.944 48.5788 10.5307 48.274 10.226C47.9693 9.92121 47.556 9.75 47.125 9.75ZM19.5 39H6.5V13H19.5C20.7929 13 22.0329 13.5136 22.9471 14.4279C23.8614 15.3421 24.375 16.5821 24.375 17.875V40.625C22.9699 39.5677 21.2585 38.9972 19.5 39ZM45.5 39H32.5C30.7415 38.9972 29.0301 39.5677 27.625 40.625V17.875C27.625 16.5821 28.1386 15.3421 29.0529 14.4279C29.9671 13.5136 31.2071 13 32.5 13H45.5V39ZM32.5 17.875H40.625C41.056 17.875 41.4693 18.0462 41.774 18.351C42.0788 18.6557 42.25 19.069 42.25 19.5C42.25 19.931 42.0788 20.3443 41.774 20.649C41.4693 20.9538 41.056 21.125 40.625 21.125H32.5C32.069 21.125 31.6557 20.9538 31.351 20.649C31.0462 20.3443 30.875 19.931 30.875 19.5C30.875 19.069 31.0462 18.6557 31.351 18.351C31.6557 18.0462 32.069 17.875 32.5 17.875ZM42.25 26C42.25 26.431 42.0788 26.8443 41.774 27.149C41.4693 27.4538 41.056 27.625 40.625 27.625H32.5C32.069 27.625 31.6557 27.4538 31.351 27.149C31.0462 26.8443 30.875 26.431 30.875 26C30.875 25.569 31.0462 25.1557 31.351 24.851C31.6557 24.5462 32.069 24.375 32.5 24.375H40.625C41.056 24.375 41.4693 24.5462 41.774 24.851C42.0788 25.1557 42.25 25.569 42.25 26ZM42.25 32.5C42.25 32.931 42.0788 33.3443 41.774 33.649C41.4693 33.9538 41.056 34.125 40.625 34.125H32.5C32.069 34.125 31.6557 33.9538 31.351 33.649C31.0462 33.3443 30.875 32.931 30.875 32.5C30.875 32.069 31.0462 31.6557 31.351 31.351C31.6557 31.0462 32.069 30.875 32.5 30.875H40.625C41.056 30.875 41.4693 31.0462 41.774 31.351C42.0788 31.6557 42.25 32.069 42.25 32.5Z" fill="#3A5155"/>
</svg>
