<svg width="50" height="52" viewBox="0 0 50 52" fill="none" xmlns="http://www.w3.org/2000/svg">
<path d="M40.625 6.5H9.375C8.5462 6.5 7.75134 6.84241 7.16529 7.4519C6.57924 8.0614 6.25 8.88805 6.25 9.75V42.25C6.25 43.112 6.57924 43.9386 7.16529 44.5481C7.75134 45.1576 8.5462 45.5 9.375 45.5H40.625C41.4538 45.5 42.2487 45.1576 42.8347 44.5481C43.4208 43.9386 43.75 43.112 43.75 42.25V9.75C43.75 8.88805 43.4208 8.0614 42.8347 7.4519C42.2487 6.84241 41.4538 6.5 40.625 6.5ZM37.5 21.125H40.625V30.875H37.5V21.125ZM40.625 17.875H37.5V9.75H40.625V17.875ZM9.375 9.75H34.375V42.25H9.375V9.75ZM40.625 42.25H37.5V34.125H40.625V42.25ZM29.6387 33.7188C29.133 31.7554 27.9342 30.0624 26.2812 28.9778C27.159 28.0703 27.758 26.9122 28.0022 25.6503C28.2463 24.3883 28.1247 23.0794 27.6528 21.8895C27.1808 20.6995 26.3798 19.682 25.3512 18.9661C24.3226 18.2502 23.1127 17.868 21.875 17.868C20.6373 17.868 19.4274 18.2502 18.3988 18.9661C17.3702 19.682 16.5692 20.6995 16.0972 21.8895C15.6252 23.0794 15.5037 24.3883 15.7478 25.6503C15.992 26.9122 16.591 28.0703 17.4688 28.9778C15.8169 30.0636 14.6184 31.7561 14.1113 33.7188C14.0077 34.1363 14.0678 34.5795 14.2785 34.9509C14.4891 35.3223 14.8329 35.5915 15.2344 35.6992C15.6358 35.807 16.062 35.7444 16.4191 35.5254C16.7762 35.3064 17.0351 34.9488 17.1387 34.5312C17.6543 32.4492 19.6895 30.875 21.875 30.875C24.0605 30.875 26.0977 32.4452 26.6113 34.5312C26.7149 34.9488 26.9738 35.3064 27.3309 35.5254C27.688 35.7444 28.1142 35.807 28.5156 35.6992C28.9171 35.5915 29.2609 35.3223 29.4715 34.9509C29.6822 34.5795 29.7423 34.1363 29.6387 33.7188ZM18.75 24.375C18.75 23.7322 18.9333 23.1039 19.2767 22.5694C19.62 22.0349 20.1081 21.6184 20.6791 21.3724C21.2501 21.1264 21.8785 21.062 22.4847 21.1874C23.0908 21.3128 23.6477 21.6224 24.0847 22.0769C24.5217 22.5314 24.8194 23.1105 24.94 23.741C25.0605 24.3714 24.9986 25.0249 24.7621 25.6187C24.5256 26.2126 24.1251 26.7202 23.6112 27.0773C23.0973 27.4344 22.4931 27.625 21.875 27.625C21.0462 27.625 20.2513 27.2826 19.6653 26.6731C19.0792 26.0636 18.75 25.237 18.75 24.375Z" fill="#585C3E"/>
</svg>
