<svg width="50" height="50" viewBox="0 0 50 50" fill="none" xmlns="http://www.w3.org/2000/svg">
<path d="M16.125 43C14.0944 43 12.3426 42.2933 10.8694 40.8799C9.3963 39.4664 8.56019 37.7644 8.36111 35.7736C5.97222 35.4551 3.98148 34.4 2.38889 32.6083C0.796296 30.8167 0 28.7065 0 26.2778C0 25.4417 0.109491 24.6155 0.328472 23.7993C0.547454 22.9831 0.875926 22.2167 1.31389 21.5C0.875926 20.7833 0.547454 20.0269 0.328472 19.2306C0.109491 18.4343 0 17.5981 0 16.7222C0 14.2935 0.796296 12.1933 2.38889 10.4215C3.98148 8.64977 5.95231 7.60463 8.30139 7.28611C8.42083 5.25556 9.23704 3.53356 10.75 2.12014C12.263 0.706713 14.0546 0 16.125 0C17.1602 0 18.1257 0.199074 19.0215 0.597222C19.9174 0.99537 20.7435 1.53287 21.5 2.20972C22.2167 1.53287 23.0329 0.99537 23.9486 0.597222C24.8644 0.199074 25.8398 0 26.875 0C28.9454 0 30.7271 0.696759 32.2201 2.09028C33.7132 3.4838 34.5194 5.19583 34.6389 7.22639C36.988 7.54491 38.9688 8.6 40.5813 10.3917C42.1938 12.1833 43 14.2935 43 16.7222C43 17.5981 42.8905 18.4343 42.6715 19.2306C42.4525 20.0269 42.1241 20.7833 41.6861 21.5C42.1241 22.2167 42.4525 22.9831 42.6715 23.7993C42.8905 24.6155 43 25.4417 43 26.2778C43 28.7463 42.1938 30.8664 40.5813 32.6382C38.9688 34.41 36.9681 35.4551 34.5792 35.7736C34.3801 37.7644 33.5539 39.4664 32.1007 40.8799C30.6475 42.2933 28.9056 43 26.875 43C25.8796 43 24.9141 42.8109 23.9785 42.4326C23.0428 42.0544 22.2167 41.5269 21.5 40.85C20.7435 41.5269 19.9074 42.0544 18.9917 42.4326C18.0759 42.8109 17.1204 43 16.125 43ZM23.8889 7.76389V35.2361C23.8889 36.0722 24.1775 36.7789 24.7549 37.3563C25.3322 37.9336 26.0389 38.2222 26.875 38.2222C27.6713 38.2222 28.3581 37.9037 28.9354 37.2667C29.5127 36.6296 29.8213 35.913 29.8611 35.1167C29.025 34.7981 28.2586 34.3701 27.5618 33.8326C26.865 33.2951 26.238 32.6481 25.6806 31.8917C25.2824 31.3343 25.1331 30.737 25.2326 30.1C25.3322 29.463 25.6606 28.9454 26.2181 28.5472C26.7755 28.1491 27.3727 27.9998 28.0097 28.0993C28.6468 28.1988 29.1644 28.5273 29.5625 29.0847C30.0005 29.7218 30.5579 30.2095 31.2347 30.5479C31.9116 30.8863 32.6481 31.0556 33.4444 31.0556C34.7583 31.0556 35.8831 30.5877 36.8188 29.6521C37.7544 28.7164 38.2222 27.5917 38.2222 26.2778C38.2222 26.0787 38.2123 25.8796 38.1924 25.6806C38.1725 25.4815 38.1227 25.2824 38.0431 25.0833C37.3662 25.4815 36.6396 25.7801 35.8632 25.9792C35.0868 26.1782 34.2806 26.2778 33.4444 26.2778C32.7676 26.2778 32.2002 26.0488 31.7424 25.591C31.2845 25.1331 31.0556 24.5657 31.0556 23.8889C31.0556 23.212 31.2845 22.6447 31.7424 22.1868C32.2002 21.7289 32.7676 21.5 33.4444 21.5C34.7583 21.5 35.8831 21.0322 36.8188 20.0965C37.7544 19.1609 38.2222 18.0361 38.2222 16.7222C38.2222 15.4083 37.7544 14.2935 36.8188 13.3778C35.8831 12.462 34.7583 11.9843 33.4444 11.9444C33.0065 12.6611 32.4391 13.2882 31.7424 13.8257C31.0456 14.3632 30.2792 14.7912 29.4431 15.1097C28.806 15.3486 28.1889 15.3287 27.5917 15.05C26.9944 14.7713 26.5963 14.3134 26.3972 13.6764C26.1981 13.0394 26.228 12.4222 26.4868 11.825C26.7456 11.2278 27.1935 10.8296 27.8306 10.6306C28.4278 10.4315 28.9155 10.0731 29.2938 9.55556C29.672 9.03796 29.8611 8.44074 29.8611 7.76389C29.8611 6.92778 29.5725 6.22106 28.9951 5.64375C28.4178 5.06644 27.7111 4.77778 26.875 4.77778C26.0389 4.77778 25.3322 5.06644 24.7549 5.64375C24.1775 6.22106 23.8889 6.92778 23.8889 7.76389ZM19.1111 35.2361V7.76389C19.1111 6.92778 18.8225 6.22106 18.2451 5.64375C17.6678 5.06644 16.9611 4.77778 16.125 4.77778C15.2889 4.77778 14.5822 5.06644 14.0049 5.64375C13.4275 6.22106 13.1389 6.92778 13.1389 7.76389C13.1389 8.40093 13.3181 8.98819 13.6764 9.52569C14.0347 10.0632 14.5125 10.4315 15.1097 10.6306C15.7468 10.8296 16.2046 11.2278 16.4833 11.825C16.762 12.4222 16.8019 13.0394 16.6028 13.6764C16.3639 14.3134 15.9458 14.7713 15.3486 15.05C14.7514 15.3287 14.1343 15.3486 13.4972 15.1097C12.6611 14.7912 11.8947 14.3632 11.1979 13.8257C10.5012 13.2882 9.9338 12.6611 9.49583 11.9444C8.22176 11.9843 7.1169 12.472 6.18125 13.4076C5.2456 14.3433 4.77778 15.4481 4.77778 16.7222C4.77778 18.0361 5.2456 19.1609 6.18125 20.0965C7.1169 21.0322 8.24167 21.5 9.55556 21.5C10.2324 21.5 10.7998 21.7289 11.2576 22.1868C11.7155 22.6447 11.9444 23.212 11.9444 23.8889C11.9444 24.5657 11.7155 25.1331 11.2576 25.591C10.7998 26.0488 10.2324 26.2778 9.55556 26.2778C8.71944 26.2778 7.91319 26.1782 7.13681 25.9792C6.36042 25.7801 5.6338 25.4815 4.95694 25.0833C4.87731 25.2824 4.82755 25.4815 4.80764 25.6806C4.78773 25.8796 4.77778 26.0787 4.77778 26.2778C4.77778 27.5917 5.2456 28.7164 6.18125 29.6521C7.1169 30.5877 8.24167 31.0556 9.55556 31.0556C10.3519 31.0556 11.0884 30.8863 11.7653 30.5479C12.4421 30.2095 12.9995 29.7218 13.4375 29.0847C13.8356 28.5273 14.3532 28.1988 14.9903 28.0993C15.6273 27.9998 16.2245 28.1491 16.7819 28.5472C17.3394 28.9454 17.6678 29.463 17.7674 30.1C17.8669 30.737 17.7176 31.3343 17.3194 31.8917C16.762 32.6481 16.125 33.3051 15.4083 33.8625C14.6917 34.4199 13.9153 34.8579 13.0792 35.1764C13.119 35.9727 13.4375 36.6794 14.0347 37.2965C14.6319 37.9137 15.3287 38.2222 16.125 38.2222C16.9611 38.2222 17.6678 37.9336 18.2451 37.3563C18.8225 36.7789 19.1111 36.0722 19.1111 35.2361Z" fill="#585C3E"/>
</svg>
