<svg width="50" height="48" viewBox="0 0 50 48" fill="none" xmlns="http://www.w3.org/2000/svg">
<path d="M27.1423 2.66083C24.2962 5.88011 23.3164 7.65304 22.8965 10.4524C22.6166 12.7852 22.3367 12.9719 21.1236 11.6188C19.7239 10.0325 15.6182 8.81945 11.7924 8.81945C8.3398 8.81945 8.3398 8.81945 8.57308 13.1118C8.80636 17.4042 9.69283 20.0636 11.2791 21.37C12.5389 22.3964 12.1656 23.2829 10.5326 23.2829C8.29314 23.2829 5.02721 25.0558 1.99455 27.8085C-0.664851 30.2813 -0.664851 30.2813 1.99455 32.7074C5.26049 35.7401 7.26671 36.8598 9.97277 37.1864C12.119 37.4197 12.5855 38.1195 11.2791 39.1926C9.69283 40.499 8.85302 43.1584 8.57308 47.4508C8.29314 51.7432 8.29314 51.7432 11.979 51.7432C16.178 51.7432 17.9976 51.2299 20.797 49.2704C23.7364 47.1709 24.9961 44.1849 25.1827 38.9127C25.3227 34.7136 25.3227 34.7136 22.43 34.8536C20.797 34.9469 19.4906 34.8536 19.4906 34.667C19.4906 34.4337 20.3771 33.3606 21.4502 32.2875C23.4098 30.2813 23.4098 30.2813 21.4502 28.2751C20.3771 27.202 19.4906 26.1289 19.4906 25.9423C19.4906 25.7557 20.8437 25.6157 22.5233 25.6157C25.5559 25.6157 25.5559 25.6157 25.2293 22.8163C24.9028 19.3638 25.6493 19.0838 28.0287 21.8832C28.9152 22.9096 29.8017 23.7494 30.0349 23.7494C30.2682 23.7494 30.9681 23.0029 31.6213 22.1165C33.8141 19.0838 34.9338 19.4104 34.5606 23.0496C34.2807 25.6157 34.2807 25.6157 37.4066 25.6157C39.0862 25.6157 40.4859 25.8023 40.4859 26.0356C40.4859 26.2689 39.5062 27.342 38.2931 28.3684C36.1002 30.2346 36.1002 30.2346 38.2931 32.1476C39.5062 33.2206 40.346 34.2937 40.206 34.5737C40.066 34.807 38.7597 34.9469 37.2667 34.9003C34.6539 34.7603 34.6539 34.7603 34.5139 37.5597C34.1873 43.4384 36.1469 47.7307 40.346 50.2035C42.2589 51.3233 43.1453 51.5099 47.0645 51.6499C51.5435 51.8365 51.5435 51.8365 51.3568 48.4306C51.0769 43.1584 50.8436 42.2253 49.3506 40.1258C47.5777 37.6996 47.5777 37.2797 49.4906 37.2797C51.7301 37.2797 55.3226 35.3202 57.982 32.6141C60.2682 30.2813 60.2682 30.2813 57.982 27.9485C55.2293 25.1491 51.7301 23.2829 49.2573 23.2829C48.2775 23.2829 47.4844 23.1896 47.4844 23.0496C47.4844 22.9096 48.2309 21.8832 49.1173 20.7168C50.797 18.4773 51.0769 17.5442 51.3568 12.1787C51.5435 8.81945 51.5435 8.81945 47.9043 8.81945C43.8452 8.81945 40.9992 9.65926 38.9929 11.5255C37.4999 12.9252 36.7534 12.5519 36.7534 10.4058C36.7534 8.1196 35.2138 5.27358 32.4144 2.38089C31.108 1.07452 29.895 -0.0452331 29.755 0.00142307C29.615 0.00142307 28.4486 1.21448 27.1423 2.66083Z" fill="#3A5155"/>
<path d="M27.609 34.9003C27.5157 34.9936 27.4224 38.866 27.4224 43.4384C27.4224 51.7432 27.4224 51.7432 29.7552 51.7432C32.088 51.7432 32.088 51.7432 32.088 43.2051C32.088 34.7136 32.088 34.7136 29.9418 34.7136C28.7754 34.7136 27.7023 34.807 27.609 34.9003Z" fill="#3A5155"/>
</svg>
