<svg width="50" height="50" viewBox="0 0 50 50" fill="none" xmlns="http://www.w3.org/2000/svg">
<path d="M25.242 2.65425C24.1066 4.39473 23.5825 5.78712 23.5825 6.87493C23.5389 8.48488 23.5389 8.48488 22.7964 7.00547C22.185 5.78712 17.9052 2.21912 16.9881 2.17561C16.8571 2.17561 16.4641 3.52449 16.0711 5.22147C15.547 7.74517 15.547 8.44137 16.0274 9.6162C16.8135 11.5307 16.7698 11.6178 15.416 10.3559C14.5862 9.57269 13.1451 8.96352 11.1799 8.52839C9.52035 8.13678 8.0792 7.87571 7.99185 7.96273C7.90451 8.04976 8.16654 9.57269 8.51591 11.3567C9.08364 13.9674 9.43301 14.7506 10.6121 15.7514C12.0096 17.0133 12.0096 17.0133 10.6121 16.3171C9.82605 15.969 8.73427 15.6644 8.16654 15.6644C6.46336 15.6644 2.18357 16.6217 2.18357 17.0133C2.18357 17.1873 2.92598 18.4492 3.84308 19.7545C5.0222 21.5385 5.89563 22.3218 7.20577 22.8004C8.95262 23.4096 8.95262 23.4096 7.24944 23.4531C5.45892 23.4966 0 26.3249 0 27.1951C0 27.9783 5.54626 30.8937 7.07476 30.9372C8.51591 30.9372 8.51591 30.9372 6.98741 31.5899C5.58993 32.1555 2.18357 36.3327 2.18357 37.4205C2.18357 37.5945 3.58105 38.0297 5.24056 38.3343C7.59881 38.7259 8.55958 38.7259 9.38934 38.3778C11.1799 37.551 11.6602 37.8121 10.3501 38.8564C9.43301 39.6396 8.9963 40.5534 8.47224 43.0336C8.12287 44.8176 7.90451 46.297 7.99185 46.384C8.0792 46.5145 9.52035 46.2535 11.1799 45.8619C13.1451 45.4267 14.6299 44.7741 15.4597 44.0344C16.5078 43.0771 16.6825 42.9901 16.3768 43.7298C16.2021 44.2084 15.94 45.0351 15.8527 45.5573C15.5907 46.6886 16.5514 52.2146 16.9881 52.1711C17.9926 52.0841 22.185 48.6902 22.7964 47.4283C23.5389 45.9054 23.5389 45.9054 23.5825 47.5588C23.5825 48.7772 24.0629 49.952 25.3294 51.823C26.3338 53.2154 27.1636 54.3903 27.2509 54.3903C27.3383 54.3903 28.2117 53.1719 29.2161 51.649C30.3952 49.8215 31.0066 48.3856 31.0066 47.3848C31.0503 45.9054 31.0503 45.9054 31.618 47.2978C32.1858 48.5161 36.5529 52.2146 37.47 52.2146C37.6884 52.2146 38.1251 50.7352 38.4308 48.9077C38.9548 45.9054 38.9548 45.4703 38.2561 44.2954C37.208 42.5549 37.601 42.3374 38.9548 43.9038C39.8283 44.8176 40.8327 45.2962 43.2346 45.8619C44.9815 46.2535 46.51 46.5145 46.5973 46.4275C46.6847 46.3405 46.4226 44.9046 46.0296 43.2511C45.5929 41.2931 44.9378 39.8137 44.1954 38.9869C43.191 37.9426 43.1473 37.7686 43.8897 38.0732C45.7676 38.7694 46.3353 38.8129 49.3486 38.2907C51.5758 37.8991 52.4056 37.5945 52.2309 37.2029C51.6195 35.593 48.6499 32.0685 47.4271 31.5464C46.0733 30.9807 46.0733 30.9807 47.5581 30.9372C49.0866 30.8937 54.7639 27.6303 54.3708 27.0211C54.2835 26.847 53.017 25.9768 51.5758 25.1065C49.829 24.0187 48.4315 23.4966 47.2961 23.4531C45.6365 23.4096 45.6365 23.4096 47.165 22.8874C48.2132 22.4958 49.2613 21.5385 50.5277 19.7545C51.5322 18.3622 52.3619 17.0568 52.4056 16.9262C52.4056 16.4911 46.8593 15.5339 45.7239 15.7949C45.1998 15.882 44.3701 16.143 43.8897 16.3171C43.1473 16.6217 43.2346 16.4476 44.1954 15.4033C44.9378 14.5766 45.5929 13.0972 46.0296 11.1391C46.4226 9.48566 46.6847 8.09327 46.5973 8.00625C46.379 7.78869 40.789 9.00703 40.0903 9.39864C39.7846 9.57269 39.1732 10.2254 38.6928 10.791C37.601 12.1399 37.2953 11.7048 38.2561 10.0948C38.9548 8.92 38.9548 8.48488 38.4308 5.48254C38.1251 3.65503 37.732 2.17561 37.5137 2.17561C36.4656 2.17561 32.2731 5.61308 31.7054 6.96195C31.0503 8.48488 31.0503 8.48488 31.0503 7.00547C31.0066 6.00469 30.3952 4.56878 29.2161 2.74127C28.2117 1.21834 27.2946 6.33299e-07 27.1199 6.33299e-07C26.9889 0.0435128 26.1155 1.21834 25.242 2.65425Z" fill="#585C3E"/>
</svg>
