<svg width="50" height="50" viewBox="0 0 50 50" fill="none" xmlns="http://www.w3.org/2000/svg">
<path d="M20.2269 5.37285C20.3695 10.4128 20.4646 10.8883 21.6533 12.4574C25.1718 17.0219 32.5891 16.3562 34.9189 11.2211C35.5846 9.74718 35.8223 8.13058 35.8223 4.56455C35.8223 -0.142615 35.8223 -0.142616 34.1582 0.142667C32.0661 0.475496 29.8314 2.04455 28.928 3.85134C28.5001 4.61209 28.1197 5.23021 28.0246 5.23021C27.9295 5.23021 27.3114 4.42191 26.6457 3.42342C25.4095 1.52153 22.937 2.53566e-05 21.0827 2.53566e-05C20.0842 2.53566e-05 20.0367 0.0951203 20.2269 5.37285Z" fill="#EAF5A4"/>
<path d="M10.7174 5.46786C10.0042 6.94182 9.95668 11.126 10.6223 12.3622C11.0503 13.1229 10.8125 13.218 8.10235 13.4082C5.96273 13.5509 4.67896 13.8837 3.58537 14.692C2.72953 15.3101 2.06387 15.9758 2.15896 16.166C2.3967 16.7841 8.29254 21.3961 9.86159 22.2044C11.6684 23.1554 15.5197 22.775 17.1838 21.5388C20.5597 19.0663 21.6533 14.3592 19.7038 11.126C18.7529 9.60446 12.5718 4.27919 11.7159 4.27919C11.4782 4.27919 11.0027 4.80221 10.7174 5.46786Z" fill="#EAF5A4"/>
<path d="M40.7671 6.60906C37.2011 9.50944 35.9649 10.9834 35.3468 13.3607C33.6351 19.6845 41.1951 25.2475 46.8056 21.729C49.1354 20.3026 53.8901 16.4989 53.8901 16.0709C53.8901 15.8807 53.2245 15.2626 52.3686 14.6921C51.275 13.8838 49.9913 13.5509 47.8041 13.4083C45.2366 13.2181 44.8562 13.0755 45.1415 12.4098C46.235 10.0325 45.5694 4.27926 44.2381 4.27926C43.9052 4.3268 42.3837 5.37284 40.7671 6.60906Z" fill="#EAF5A4"/>
<path d="M25.8374 19.5893C20.8925 20.9681 18.6578 27.3394 21.6533 31.476C22.8895 33.2353 25.8374 34.7092 28.0721 34.7092C32.494 34.6617 36.2502 30.2398 35.5846 25.913C35.2042 23.1553 32.8269 20.35 30.2118 19.5893C28.0721 18.9236 28.0721 18.9236 25.8374 19.5893Z" fill="#EAF5A4"/>
<path d="M4.44127 24.2014C2.49184 24.6293 0.589953 25.1523 0.30467 25.3425C-1.12174 26.2459 2.77712 30.6678 5.43976 31.2383C7.05636 31.5236 7.15145 31.904 5.91523 32.6647C3.8707 33.9485 2.01637 40.4149 3.68051 40.4149C5.05938 40.4149 11.9062 38.6081 13.3326 37.8474C14.9967 36.9915 16.5658 34.7568 17.0412 32.4746C17.7069 29.3364 15.3771 25.3425 12.1914 23.9636C10.2896 23.1553 9.00579 23.2029 4.44127 24.2014Z" fill="#EAF5A4"/>
<path d="M43.6676 23.9636C41.3853 24.9621 39.2457 27.7198 38.9129 30.1447C38.4374 33.0926 40.054 36.4209 42.6216 37.8473C44.6661 38.9884 51.7506 40.605 52.5113 40.1296C53.7 39.4164 51.5604 33.2828 49.8487 32.6171C48.8502 32.2368 48.9453 31.3809 49.9914 31.3809C52.0834 31.3809 56.0298 27.482 55.697 25.7228C55.6019 25.2949 54.0804 24.7243 51.5129 24.2013C46.6631 23.1553 45.5219 23.1553 43.6676 23.9636Z" fill="#EAF5A4"/>
<path d="M15.3296 37.7048C14.1885 38.418 12.9998 40.0821 11.4307 43.1727C10.1945 45.5976 9.29113 47.7848 9.43377 48.0225C9.95679 48.9259 15.0443 48.5455 16.7085 47.547C18.6579 46.3583 18.7054 46.3583 18.7054 47.7372C18.7054 49.544 19.5613 51.4459 21.2254 53.11C22.0337 53.9659 22.842 54.6791 23.0322 54.6791C23.1749 54.6791 24.2209 52.8247 25.3145 50.59C28.3575 44.2663 27.8345 40.0346 23.8405 37.5621C21.6058 36.1833 17.4692 36.2784 15.3296 37.7048Z" fill="#EAF5A4"/>
<path d="M32.0188 37.7048C27.9773 40.3674 27.5494 44.1712 30.4973 50.4949C31.5909 52.8247 32.6369 54.6791 32.8746 54.6791C33.1124 54.6791 34.1108 53.8232 35.0142 52.8247C36.2029 51.4934 36.821 50.3047 37.0112 48.7832C37.2014 47.5946 37.4391 46.5961 37.5342 46.5961C37.6293 46.5961 38.3901 47.024 39.2459 47.547C40.9101 48.5455 45.9501 48.9259 46.5206 48.07C46.6633 47.8323 45.7599 45.6451 44.5237 43.1727C41.7184 37.7523 40.292 36.6112 36.298 36.6112C34.2535 36.6112 33.2075 36.8965 32.0188 37.7048Z" fill="#EAF5A4"/>
</svg>
