<svg width="38" height="50" viewBox="0 0 38 50" fill="none" xmlns="http://www.w3.org/2000/svg">
<path d="M10.0519 0.653102C9.91273 1.12778 8.89193 3.97583 7.77833 6.96629C5.31913 13.5168 4.94793 15.6054 5.69033 18.7857C6.61833 22.8205 11.0727 27.14 16.0375 28.8489C18.4503 29.7033 18.4503 29.7033 18.5895 33.738C18.6823 36.1589 18.5431 37.8203 18.2647 37.8203C18.0327 37.8203 17.7079 37.4405 17.5687 36.9658C17.0119 35.1621 14.5063 33.5482 7.68553 30.4628C3.78794 28.7065 0.447138 27.3774 0.261538 27.4723C0.0759382 27.5198 -0.0632617 29.9406 0.0295382 32.8362C0.261538 40.7633 0.586338 41.143 11.2583 45.6524C18.1719 48.5954 18.8679 49.2125 18.4967 52.203C18.2647 54.4814 18.2647 54.4814 21.1415 54.339C23.9719 54.1966 23.9719 54.1966 23.8791 52.0605C23.7863 50.8264 23.9719 49.5922 24.3431 49.1176C24.6679 48.6903 27.7767 47.1239 31.2103 45.6524C39.6551 41.9974 39.8407 41.9025 41.1399 39.5766C42.1143 37.8677 42.2999 36.8709 42.4391 32.5039C42.4855 29.6558 42.3927 27.3774 42.2071 27.3299C42.0215 27.3299 38.4023 28.8489 34.2263 30.7476C27.4519 33.7855 26.4775 34.3551 25.4103 35.969C24.7607 37.0133 24.1575 37.8203 24.0183 37.8203C23.8791 37.8203 23.7863 36.0165 23.7863 33.7855C23.7863 30.9375 23.9719 29.6558 24.3895 29.5609C29.3079 28.0894 34.1799 24.5293 35.9431 21.0642C37.4743 18.0737 37.3815 13.327 35.6183 9.57701C34.9223 8.01058 33.8551 5.25746 33.2983 3.40622C32.1383 -0.201316 31.4887 -0.91333 31.0711 1.12778C30.5607 3.7385 26.9415 12.7099 26.4775 12.5675C26.0135 12.3776 24.8535 9.57702 22.5799 3.16889C21.9767 1.46005 21.3735 0.0834901 21.1415 0.0834901C20.9559 0.0834901 20.5383 0.937907 20.2599 1.9822C18.8679 6.49162 16.4087 12.4251 15.8983 12.4251C15.3879 12.4251 11.3047 2.31447 11.2583 0.937907C11.2583 -0.0114452 10.3303 -0.248783 10.0519 0.653102Z" fill="#FBCD5D"/>
</svg>
