<svg width="50" height="50" viewBox="0 0 50 50" fill="none" xmlns="http://www.w3.org/2000/svg">
<path d="M35.9891 22.0406C35.5803 21.7256 35.1117 21.4971 34.6118 21.369C34.1119 21.2408 33.5911 21.2158 33.0813 21.2953C36.0156 18.3328 37.5 15.3875 37.5 12.5C37.5 8.36409 34.1734 5.00002 30.0844 5.00002C28.9994 4.99321 27.9261 5.22397 26.9397 5.6761C25.9534 6.12823 25.078 6.79077 24.375 7.61721C23.672 6.79077 22.7966 6.12823 21.8103 5.6761C20.8239 5.22397 19.7506 4.99321 18.6656 5.00002C14.5766 5.00002 11.25 8.36409 11.25 12.5C11.25 14.2188 11.7562 15.8891 12.8219 17.6563C11.9491 17.8774 11.1526 18.331 10.5172 18.9688L6.98281 22.5H2.5C1.83696 22.5 1.20107 22.7634 0.732233 23.2323C0.263392 23.7011 0 24.337 0 25L0 31.25C0 31.9131 0.263392 32.5489 0.732233 33.0178C1.20107 33.4866 1.83696 33.75 2.5 33.75H18.75C18.8522 33.7501 18.954 33.7375 19.0531 33.7125L29.0531 31.2125C29.1169 31.1973 29.1791 31.1764 29.2391 31.15L35.3125 28.5656L35.3813 28.5344C35.965 28.2427 36.4648 27.8073 36.8337 27.269C37.2026 26.7308 37.4284 26.1075 37.4898 25.4579C37.5512 24.8083 37.4463 24.1537 37.1848 23.5558C36.9233 22.958 36.514 22.4366 35.9953 22.0406H35.9891ZM18.6656 7.50002C19.6338 7.48586 20.5841 7.76077 21.3952 8.2896C22.2063 8.81844 22.8412 9.57717 23.2188 10.4688C23.3129 10.698 23.4731 10.8941 23.679 11.0321C23.8849 11.1701 24.1271 11.2438 24.375 11.2438C24.6229 11.2438 24.8651 11.1701 25.071 11.0321C25.2769 10.8941 25.4371 10.698 25.5312 10.4688C25.9088 9.57717 26.5437 8.81844 27.3548 8.2896C28.1659 7.76077 29.1162 7.48586 30.0844 7.50002C32.7484 7.50002 35 9.78909 35 12.5C35 15.5485 32.5328 18.9969 27.8656 22.4844L26.1328 22.8828C26.2849 22.2403 26.2896 21.5717 26.1466 20.9271C26.0035 20.2825 25.7164 19.6787 25.3068 19.1609C24.8972 18.643 24.3756 18.2246 23.7813 17.937C23.187 17.6493 22.5353 17.5 21.875 17.5H15.7313C14.3828 15.6813 13.75 14.0813 13.75 12.5C13.75 9.78909 16.0016 7.50002 18.6656 7.50002ZM2.5 25H6.25V31.25H2.5V25ZM34.2859 26.2828L28.3484 28.811L18.5938 31.25H8.75V24.2672L12.2859 20.7328C12.5172 20.4997 12.7926 20.3148 13.096 20.189C13.3993 20.0632 13.7247 19.999 14.0531 20H21.875C22.3723 20 22.8492 20.1976 23.2008 20.5492C23.5525 20.9008 23.75 21.3777 23.75 21.875C23.75 22.3723 23.5525 22.8492 23.2008 23.2008C22.8492 23.5525 22.3723 23.75 21.875 23.75H17.5C17.1685 23.75 16.8505 23.8817 16.6161 24.1161C16.3817 24.3506 16.25 24.6685 16.25 25C16.25 25.3315 16.3817 25.6495 16.6161 25.8839C16.8505 26.1183 17.1685 26.25 17.5 26.25H22.5C22.5941 26.2498 22.6879 26.2393 22.7797 26.2188L33.2484 23.811L33.2969 23.7985C33.6165 23.7097 33.9576 23.7423 34.2545 23.89C34.5515 24.0376 34.7834 24.2899 34.9056 24.5983C35.0278 24.9066 35.0316 25.2492 34.9163 25.5602C34.8011 25.8712 34.5749 26.1286 34.2812 26.2828H34.2859Z" fill="#FBCD5D"/>
</svg>
