<svg width="61" height="61" viewBox="0 0 61 61" fill="none" xmlns="http://www.w3.org/2000/svg">
<path d="M38.1252 9.53125C38.1252 8.02317 37.678 6.54896 36.8401 5.29503C36.0023 4.04111 34.8114 3.06379 33.4181 2.48667C32.0248 1.90955 30.4917 1.75855 29.0126 2.05277C27.5335 2.34698 26.1748 3.07319 25.1085 4.13956C24.0421 5.20594 23.3159 6.56458 23.0217 8.04369C22.7274 9.5228 22.8784 11.0559 23.4556 12.4492C24.0327 13.8425 25.01 15.0334 26.2639 15.8712C27.5179 16.7091 28.9921 17.1563 30.5001 17.1563C32.5224 17.1563 34.4619 16.3529 35.8918 14.9229C37.3218 13.493 38.1252 11.5535 38.1252 9.53125ZM30.5001 13.3438C29.7461 13.3438 29.009 13.1202 28.382 12.7012C27.7551 12.2823 27.2664 11.6869 26.9779 10.9902C26.6893 10.2936 26.6138 9.52702 26.7609 8.78747C26.908 8.04792 27.2711 7.3686 27.8043 6.83541C28.3375 6.30222 29.0168 5.93912 29.7564 5.79201C30.4959 5.6449 31.2625 5.7204 31.9591 6.00896C32.6558 6.29752 33.2512 6.78618 33.6701 7.41314C34.089 8.0401 34.3126 8.77721 34.3126 9.53125C34.3126 10.5424 33.911 11.5121 33.196 12.2271C32.481 12.9421 31.5113 13.3438 30.5001 13.3438ZM55.1623 20.8997C54.9453 19.8321 54.3622 18.8738 53.5139 18.1903C52.6655 17.5068 51.6051 17.1411 50.5158 17.1563H10.4845C9.39816 17.1562 8.34438 17.5274 7.49781 18.2082C6.65124 18.889 6.06269 19.8386 5.82967 20.8997C5.59665 21.9608 5.73317 23.0696 6.21658 24.0425C6.7 25.0154 7.5013 25.7939 8.48773 26.2491H8.5187L20.6115 31.5747L15.6076 50.5704C15.084 51.7238 15.04 53.0378 15.4853 54.2236C15.9306 55.4094 16.8287 56.3696 17.982 56.8932C19.1354 57.4168 20.4495 57.4608 21.6352 57.0155C22.821 56.5702 23.7813 55.6721 24.3048 54.5188L30.5001 43.8271L36.6955 54.5188C37.246 55.6229 38.2034 56.4705 39.3661 56.8833C40.5288 57.296 41.8063 57.2417 42.9298 56.7318C44.0534 56.2219 44.9353 55.2962 45.3902 54.1493C45.8451 53.0023 45.8375 51.7237 45.3689 50.5823L40.365 31.5866L52.4578 26.261H52.4887C53.491 25.8211 54.3074 25.0437 54.7958 24.0642C55.2843 23.0847 55.414 21.9649 55.1623 20.8997ZM50.9209 22.7821L37.3555 28.7534C36.9402 28.9364 36.6038 29.2615 36.4068 29.6704C36.2099 30.0792 36.1652 30.5449 36.2809 30.9837L41.7303 51.707C41.7581 51.818 41.7973 51.9258 41.8471 52.0287C41.9271 52.1997 41.9545 52.3906 41.9258 52.5772C41.8971 52.7638 41.8137 52.9377 41.686 53.0768C41.5584 53.2159 41.3924 53.314 41.2089 53.3586C41.0255 53.4032 40.8329 53.3923 40.6557 53.3273C40.4187 53.2404 40.2259 53.063 40.1196 52.8341C40.0954 52.7826 40.0684 52.7325 40.0385 52.684L32.1491 39.0781C31.9815 38.7893 31.741 38.5495 31.4516 38.3828C31.1622 38.2161 30.8341 38.1284 30.5001 38.1284C30.1662 38.1284 29.8381 38.2161 29.5487 38.3828C29.2593 38.5495 29.0188 38.7893 28.8512 39.0781L20.9689 52.6721C20.9391 52.7205 20.912 52.7707 20.8879 52.8222C20.7815 53.0511 20.5887 53.2285 20.3518 53.3154C20.1745 53.3804 19.982 53.3913 19.7985 53.3467C19.6151 53.3021 19.449 53.204 19.3214 53.0649C19.1938 52.9258 19.1103 52.7519 19.0817 52.5653C19.053 52.3787 19.0804 52.1878 19.1603 52.0168C19.2102 51.9139 19.2493 51.8061 19.2771 51.6951L24.7194 30.9766C24.8351 30.5377 24.7904 30.072 24.5935 29.6632C24.3965 29.2544 24.0601 28.9292 23.6448 28.7463L10.0794 22.7821C9.88472 22.6892 9.72729 22.5329 9.63288 22.3389C9.53847 22.1449 9.51268 21.9246 9.55972 21.7141C9.60675 21.5035 9.72384 21.3151 9.89183 21.1797C10.0598 21.0444 10.2688 20.97 10.4845 20.9688H50.5158C50.7321 20.9684 50.9422 21.0416 51.1114 21.1764C51.2806 21.3112 51.399 21.4996 51.4469 21.7106C51.4949 21.9216 51.4696 22.1426 51.3753 22.3373C51.281 22.532 51.1233 22.6889 50.928 22.7821H50.9209Z" fill="#6F8664"/>
</svg>
