<svg width="50" height="50" viewBox="0 0 50 50" fill="none" xmlns="http://www.w3.org/2000/svg">
<path d="M43.7498 31.5H26.9717L27.4857 30.9859L31.8739 26.5978C33.6462 27.4903 35.599 27.9662 37.5832 27.989C39.5805 27.9943 41.5404 27.4477 43.2467 26.4097C48.4354 23.2684 51.2157 15.9972 50.6842 6.9584C50.6592 6.53028 50.4778 6.12624 50.1746 5.82299C49.8713 5.51974 49.4673 5.3384 49.0392 5.3134C40.0004 4.78403 32.7292 7.56215 29.5879 12.7509C27.5404 16.1306 27.4879 20.2125 29.3976 24.1259L26.2498 27.2737L23.5789 24.6028C24.8914 21.7043 24.7973 18.6965 23.2748 16.1853C20.897 12.25 15.4457 10.1522 8.69074 10.5481C8.26335 10.5736 7.86013 10.7548 7.55739 11.0576C7.25465 11.3603 7.07339 11.7635 7.04793 12.1909C6.6498 18.9437 8.7498 24.395 12.6873 26.775C14.0046 27.5793 15.5189 28.0033 17.0623 28C18.4625 27.9861 19.8437 27.6736 21.1136 27.0834L23.7736 29.75L22.0236 31.5H12.2498C11.7857 31.5 11.3406 31.6843 11.0124 32.0125C10.6842 32.3407 10.4998 32.7858 10.4998 33.25C10.4998 33.7141 10.6842 34.1592 11.0124 34.4874C11.3406 34.8156 11.7857 35 12.2498 35H14.3476L17.2373 48.009C17.4067 48.7882 17.8385 49.4855 18.4604 49.9845C19.0824 50.4834 19.8568 50.7536 20.6542 50.75H35.3476C36.145 50.7536 36.9194 50.4834 37.5413 49.9845C38.1633 49.4855 38.5951 48.7882 38.7645 48.009L41.6542 35H43.7498C44.2139 35 44.659 34.8156 44.9872 34.4874C45.3154 34.1592 45.4998 33.7141 45.4998 33.25C45.4998 32.7858 45.3154 32.3407 44.9872 32.0125C44.659 31.6843 44.2139 31.5 43.7498 31.5ZM32.5936 14.5643C34.8817 10.7887 40.3023 8.65809 47.2498 8.75215C47.3395 15.7106 45.2132 21.129 41.4376 23.4084C38.9198 24.9397 35.8814 24.839 32.8451 23.1503C31.1542 20.125 31.0623 17.0822 32.5936 14.5643ZM20.1489 23.649C18.1364 24.7275 16.1436 24.7778 14.4986 23.7803C11.9829 22.2556 10.5326 18.6615 10.4998 14C15.1614 14.0328 18.7576 15.4831 20.2801 17.9987C21.2776 19.6437 21.2186 21.6365 20.1489 23.649ZM35.3476 47.25H20.6542L17.9373 35H38.0623L35.3476 47.25Z" fill="#EAF5A4"/>
</svg>
