<svg width="50" height="29" viewBox="0 0 43 24" fill="none" xmlns="http://www.w3.org/2000/svg">
<path d="M2 21.0357C2 15.9871 4.00554 11.1453 7.57543 7.57543C11.1453 4.00554 15.9871 2 21.0357 2C26.0843 2 30.9261 4.00554 34.496 7.57543C38.0659 11.1453 40.0714 15.9871 40.0714 21.0357" stroke="#3A5155" stroke-width="4" stroke-linecap="round" stroke-linejoin="round"/>
<path d="M9.32129 21.0357C9.32129 17.9289 10.5555 14.9493 12.7523 12.7524C14.9492 10.5556 17.9288 9.32141 21.0356 9.32141C24.1424 9.32141 27.122 10.5556 29.3188 12.7524C31.5157 14.9493 32.7499 17.9289 32.7499 21.0357" stroke="#3A5155" stroke-width="4" stroke-linecap="round" stroke-linejoin="round"/>
<path d="M16.6431 21.0357C16.6431 19.8706 17.1059 18.7533 17.9297 17.9295C18.7535 17.1056 19.8709 16.6428 21.0359 16.6428C22.201 16.6428 23.3183 17.1056 24.1421 17.9295C24.966 18.7533 25.4288 19.8706 25.4288 21.0357" stroke="#3A5155" stroke-width="4" stroke-linecap="round" stroke-linejoin="round"/>
</svg>
