<svg width="50" height="50" viewBox="0 0 50 50" fill="none" xmlns="http://www.w3.org/2000/svg">
<path d="M50.7651 40.8538C51.9743 38.3458 52.5676 35.5855 52.4958 32.8021C52.424 30.0187 51.689 27.2927 50.352 24.8504C49.0151 22.4081 47.1146 20.3201 44.8086 18.7598C42.5026 17.1995 39.8576 16.2119 37.0933 15.8791C36.1735 13.7405 34.8362 11.807 33.1598 10.1917C31.4834 8.57635 29.5016 7.31174 27.3304 6.47191C25.1591 5.63207 22.8422 5.23388 20.5151 5.30066C18.1881 5.36744 15.8978 5.89784 13.7783 6.86081C11.6588 7.82378 9.75275 9.19995 8.17175 10.9087C6.59075 12.6175 5.36658 14.6246 4.57093 16.8124C3.77529 19.0002 3.42415 21.3248 3.53809 23.65C3.65204 25.9752 4.22876 28.2543 5.2345 30.3538L3.64419 35.7591C3.46638 36.3625 3.45449 37.0027 3.60977 37.6123C3.76505 38.222 4.08177 38.7784 4.52659 39.2233C4.97142 39.6681 5.52791 39.9848 6.13752 40.1401C6.74713 40.2954 7.38732 40.2835 7.99075 40.1057L13.3961 38.5154C15.1317 39.3493 16.9925 39.8924 18.9042 40.1232C19.833 42.2993 21.1934 44.2645 22.9032 45.9C24.613 47.5354 26.6367 48.8072 28.8519 49.6384C31.0672 50.4696 33.4279 50.8429 35.7916 50.7358C38.1552 50.6287 40.4725 50.0434 42.6036 49.0154L48.0089 50.6057C48.6121 50.7833 49.252 50.7951 49.8613 50.6399C50.4707 50.4847 51.027 50.1682 51.4717 49.7237C51.9164 49.2792 52.2332 48.723 52.3887 48.1138C52.5442 47.5045 52.5327 46.8646 52.3554 46.2613L50.7651 40.8538ZM13.5623 34.8907C13.3951 34.8911 13.2287 34.9146 13.0679 34.9607L6.99981 36.7501L8.787 30.6776C8.91411 30.2388 8.86465 29.7678 8.64919 29.3651C7.06611 26.4044 6.59966 22.9735 7.33486 19.6978C8.07006 16.422 9.95795 13.5195 12.6544 11.5193C15.3508 9.51918 18.6762 8.55461 22.0244 8.80146C25.3726 9.0483 28.5206 10.4901 30.8945 12.8641C33.2685 15.238 34.7103 18.386 34.9572 21.7342C35.204 25.0824 34.2394 28.4078 32.2393 31.1042C30.2392 33.8007 27.3367 35.6886 24.0609 36.4238C20.7851 37.159 17.3542 36.6925 14.3936 35.1094C14.139 34.9685 13.8533 34.8934 13.5623 34.8907ZM47.2039 41.1754L48.9998 47.2501L42.9273 45.4629C42.4886 45.3358 42.0176 45.3852 41.6148 45.6007C38.3923 47.3214 34.625 47.7155 31.1162 46.6988C27.6073 45.6821 24.6342 43.3352 22.8308 40.1582C25.2269 39.9081 27.5455 39.1655 29.6411 37.9771C31.7367 36.7886 33.5641 35.1799 35.0086 33.2518C36.4532 31.3238 37.4837 29.118 38.0355 26.7729C38.5874 24.4278 38.6486 21.994 38.2154 19.6241C40.3032 20.1162 42.2499 21.0815 43.9054 22.4453C45.5609 23.8092 46.8808 25.5352 47.7634 27.4902C48.646 29.4452 49.0675 31.5768 48.9955 33.7205C48.9236 35.8642 48.36 37.9628 47.3482 39.8541C47.1304 40.2593 47.0809 40.734 47.2104 41.1754H47.2039Z" fill="#FBCD5D"/>
</svg>
